<svg width="20" height="20" viewBox="0 0 20 20" fill="none" xmlns="http://www.w3.org/2000/svg">
<path d="M15.8334 8.08677V7.50002C15.8334 4.27836 13.2217 1.66669 10 1.66669C6.77837 1.66669 4.1667 4.27836 4.1667 7.50002V8.08677C4.1667 8.79093 3.95827 9.47933 3.56767 10.0652L2.6105 11.501C1.73622 12.8124 2.40366 14.5949 3.92425 15.0097C7.90213 16.0945 12.0979 16.0945 16.0758 15.0097C17.5964 14.5949 18.2638 12.8124 17.3896 11.501L16.4324 10.0652C16.0418 9.47933 15.8334 8.79093 15.8334 8.08677Z" stroke="white" stroke-width="1.25"/>
<path d="M6.25 15.8333C6.79586 17.2898 8.26871 18.3333 10 18.3333C11.7313 18.3333 13.2041 17.2898 13.75 15.8333" stroke="white" stroke-width="1.25" stroke-linecap="round"/>
</svg>
