<svg width="25" height="24" viewBox="0 0 25 24" fill="none" xmlns="http://www.w3.org/2000/svg">
<path d="M9.62836 18.9108L10.0927 18.3218L9.62836 18.9108ZM12.6666 5.50057L12.1263 6.02067C12.2676 6.16757 12.4627 6.25057 12.6666 6.25057C12.8705 6.25057 13.0656 6.16757 13.207 6.02067L12.6666 5.50057ZM15.7049 18.9108L16.1692 19.4998L15.7049 18.9108ZM10.0927 18.3218C8.57702 17.127 6.91969 15.9602 5.60491 14.4797C4.31584 13.0282 3.41663 11.3344 3.41663 9.13704H1.91663C1.91663 11.8026 3.02712 13.836 4.48334 15.4757C5.91385 17.0865 7.73739 18.3752 9.16404 19.4998L10.0927 18.3218ZM3.41663 9.13704C3.41663 6.98617 4.63199 5.18246 6.29098 4.42413C7.90269 3.68741 10.0683 3.88251 12.1263 6.02067L13.207 4.98047C10.7651 2.44346 7.93072 2.02533 5.66739 3.0599C3.45134 4.07286 1.91663 6.42497 1.91663 9.13704H3.41663ZM9.16404 19.4998C9.67628 19.9036 10.2262 20.3342 10.7834 20.6599C11.3405 20.9854 11.9762 21.2499 12.6666 21.2499V19.7499C12.357 19.7499 11.9928 19.6292 11.5402 19.3648C11.0879 19.1005 10.6187 18.7365 10.0927 18.3218L9.16404 19.4998ZM16.1692 19.4998C17.5959 18.3752 19.4194 17.0865 20.8499 15.4757C22.3061 13.836 23.4166 11.8026 23.4166 9.13704H21.9166C21.9166 11.3344 21.0174 13.0282 19.7283 14.4797C18.4136 15.9602 16.7562 17.127 15.2406 18.3218L16.1692 19.4998ZM23.4166 9.13704C23.4166 6.42497 21.8819 4.07286 19.6659 3.0599C17.4025 2.02533 14.5681 2.44346 12.1263 4.98047L13.207 6.02067C15.265 3.88251 17.4306 3.68741 19.0423 4.42413C20.7013 5.18246 21.9166 6.98617 21.9166 9.13704H23.4166ZM15.2406 18.3218C14.7145 18.7365 14.2453 19.1005 13.793 19.3648C13.3405 19.6292 12.9762 19.7499 12.6666 19.7499V21.2499C13.357 21.2499 13.9928 20.9854 14.5498 20.6599C15.1071 20.3342 15.657 19.9036 16.1692 19.4998L15.2406 18.3218Z" fill="white" fill-opacity="0.5"/>
</svg>
