<svg width="24" height="24" viewBox="0 0 24 24" fill="none" xmlns="http://www.w3.org/2000/svg">
<path d="M2.36395 12.9581C1.98451 10.321 1.79478 9.0025 2.33524 7.87516C2.87571 6.74782 4.02607 6.06255 6.32679 4.69202L7.71163 3.86708C9.80092 2.6225 10.8456 2.00021 11.9999 2.00021C13.1542 2.00021 14.1988 2.6225 16.2881 3.86708L17.673 4.69202C19.9737 6.06255 21.1241 6.74782 21.6645 7.87516C22.205 9.0025 22.0153 10.321 21.6358 12.9581L21.357 14.8954C20.8696 18.2829 20.6259 19.9766 19.4509 20.9884C18.2758 22.0002 16.5525 22.0002 13.106 22.0002H10.8938C7.44725 22.0002 5.72397 22.0002 4.54891 20.9884C3.37384 19.9766 3.13013 18.2829 2.64272 14.8954L2.36395 12.9581Z" stroke="white" stroke-width="1.5"/>
<path d="M15 18H9" stroke="white" stroke-width="1.5" stroke-linecap="round"/>
</svg>
