<svg width="25" height="24" viewBox="0 0 25 24" fill="none" xmlns="http://www.w3.org/2000/svg">
<circle cx="12.3333" cy="13" r="9" stroke="white" stroke-opacity="0.5" stroke-width="1.5"/>
<path d="M10.3333 2H14.3333" stroke="white" stroke-opacity="0.5" stroke-width="1.5" stroke-linecap="round"/>
<path d="M14.2209 10.9348C15.2958 11.8117 15.8333 12.2501 15.8333 13C15.8333 13.7499 15.2958 14.1883 14.2209 15.0652C13.9242 15.3073 13.6299 15.5352 13.3594 15.7251C13.1222 15.8917 12.8534 16.064 12.5752 16.2332C11.5028 16.8853 10.9666 17.2114 10.4857 16.8504C10.0048 16.4894 9.96111 15.7336 9.87369 14.2222C9.84897 13.7947 9.83331 13.3757 9.83331 13C9.83331 12.6243 9.84897 12.2053 9.87369 11.7778C9.96111 10.2664 10.0048 9.51061 10.4857 9.1496C10.9666 8.78859 11.5028 9.11466 12.5752 9.76679C12.8534 9.93597 13.1222 10.1083 13.3594 10.2749C13.6299 10.4648 13.9242 10.6927 14.2209 10.9348Z" stroke="white" stroke-opacity="0.5" stroke-width="1.5"/>
</svg>
